<?xml version="1.0"?>
<svg width="200" height="200" style="enable-background:new 0 0 420 325;" xmlns="http://www.w3.org/2000/svg" xmlns:svg="http://www.w3.org/2000/svg">
 <g class="layer">
  <title>Layer 1</title>
  <path d="m98.955612,0.000001l2.088773,0l0,100l-2.088773,0l0,-100z" fill="#fff" id="svg_3" stroke-dasharray="null" stroke-linecap="round" stroke-linejoin="round" stroke-width="2"/>
  <g id="svg_5">
   <g id="svg_1">
    <path clip-rule="nonzero" d="m100.25653,100.00057c-7.31901,-0.0382 -14.62812,1.54266 -21.38807,4.71843c-12.01771,5.64577 -21.31759,15.87125 -25.8528,28.42464a1.00059,1.00806 0 1 0 1.88081,0.68867c4.35406,-12.052 13.27999,-21.8651 24.81767,-27.28537c11.53767,-5.42027 24.73942,-6.002 36.70209,-1.61545a1.00007,1.00754 0 0 0 0.83982,-1.824a1.00007,1.00754 0 0 0 -0.15624,-0.0689c-5.45142,-1.99896 -11.15071,-3.00839 -16.84328,-3.03805l0,0.00003zm-1.08395,9.50964c-0.88957,0.0185 -1.78162,0.0668 -2.67571,0.14561a1.00007,1.00754 0.03469509000000001 0 0 -0.19726,0.0354a1.00007,1.00754 0.03469509000000001 0 0 0.37108,1.97158c13.59681,-1.19848 26.79152,5.00048 34.62013,16.26458a1.00007,1.00754 0.03469509000000001 1 0 1.63862,-1.15501c-7.7218,-11.11043 -20.41337,-17.54087 -33.75686,-17.26216zm32.32331,2.03258a1.00007,1.00754 0 0 0 -0.64256,1.78466c13.13756,11.10601 19.3936,28.42545 16.41556,45.44091a1.00059,1.00806 0 0 0 1.97064,0.3503c3.10156,-17.72124 -3.41862,-35.7672 -17.10108,-47.33384a1.00007,1.00754 0 0 0 -0.16406,-0.1161a1.00007,1.00754 0 0 0 -0.4785,-0.12593zm-48.03967,1.6548a1.00007,1.00754 0.03469509000000001 0 0 -0.28515,0.0374a1.00007,1.00754 0.03469509000000001 0 0 -0.16015,0.061c-9.66217,4.53927 -17.1383,12.76117 -20.78458,22.85423c-3.64627,10.09303 -3.16377,21.23232 1.34176,30.96682a1.00007,1.00754 0.03469509000000001 1 0 1.81245,-0.852c-4.2817,-9.2509 -4.74048,-19.8345 -1.27535,-29.42614c3.46513,-9.59162 10.56927,-17.40319 19.7514,-21.71693a1.00007,1.00754 0.03469509000000001 0 0 -0.40038,-1.92436l0,-0.00002zm1.50777,12.49063c-0.7358,-0.0415 -1.2732,0.25942 -2.06049,0.64736l-4.32019,2.12702c-0.51011,0.21845 -0.87156,0.37293 -1.19333,0.58439c-0.16713,0.10984 -0.35551,0.23037 -0.52537,0.53914c-0.16987,0.30877 -0.15289,0.86154 0.002,1.1432c0.30951,0.56333 0.57203,0.58909 0.84568,0.76148c0.27365,0.1724 0.58608,0.36176 0.94333,0.62374l15.67925,11.49895l-6.36701,3.13643c-0.17711,0.0877 -0.33495,0.18752 -0.50585,0.2794l-0.0293,-0.0138l-6.67168,-3.00854c-0.33309,-0.1769 -0.58061,-0.36325 -1.07615,-0.39156c-0.50759,-0.0292 -0.82442,0.16651 -1.16207,0.33254l-1.8398,0.90512c-0.20912,0.0887 -0.36952,0.15126 -0.57029,0.28334c-0.10894,0.0715 -0.25832,0.15664 -0.41015,0.43287c-0.15182,0.27614 -0.13699,0.79736 0,1.0468c0.27401,0.49888 0.43296,0.45723 0.55663,0.5352c0.12367,0.0776 0.23926,0.14868 0.36913,0.24398l5.93733,4.35438c-0.37874,0.9222 -0.45956,1.8818 -0.0293,2.7685c0.43301,0.8926 1.24205,1.4183 2.20502,1.6823l-0.23828,7.4299c-0.005,0.1617 -0.02016,0.2965 -0.03516,0.4427c-0.0149,0.1462 -0.14619,0.247 0.07617,0.7713c0.11118,0.2621 0.51069,0.5944 0.82029,0.6434c0.3096,0.049 0.46877,-0.02 0.59178,-0.062c0.24606,-0.086 0.39326,-0.1765 0.61913,-0.3029l-0.04687,0.025l1.83979,-0.9071c0.33767,-0.1663 0.68518,-0.2968 0.97458,-0.7182c0.2894,-0.4216 0.29041,-0.7358 0.36132,-1.1216l1.75581,-7.2036c0.16573,-0.075 0.33016,-0.1331 0.49608,-0.2145l6.41193,-3.1581l-0.62303,19.4955c-0.0143,0.445 -0.0587,0.81 -0.0918,1.1334c-0.0331,0.3235 -0.17301,0.549 0.07813,1.1412c0.12558,0.296 0.54839,0.6479 0.89451,0.7025c0.34612,0.054 0.55542,-0.021 0.74412,-0.087c0.36307,-0.1257 0.70734,-0.3194 1.19137,-0.5903l0.04687,-0.025l4.27332,-2.1034c0.78731,-0.3877 1.35212,-0.6292 1.77143,-1.2396c0.40906,-0.5956 0.46031,-1.1745 0.61912,-2.0542l0.0039,-0.018l0.64256,-2.6385l2.40619,-1.1846c1.07633,-0.5297 1.53399,-1.8708 1.00778,-2.9554l-0.07813,-0.1633l-0.002,0a1.00007,1.00754 0 0 0 -0.57616,-0.5077c-0.22743,-0.211 -0.3947,-0.5023 -0.68357,-0.6021c-0.23176,-0.081 -0.47765,-0.1139 -0.72459,-0.114l0.88084,-3.6185l2.26165,-1.1158c1.07547,-0.5297 1.53237,-1.8696 1.00779,-2.9534l-0.07813,-0.1633c-0.11776,-0.2429 -0.32748,-0.5796 -0.58202,-0.6651c-0.22671,-0.2095 -0.39217,-0.3492 -0.67967,-0.4486c-0.19258,-0.066 -0.39521,-0.097 -0.59959,-0.1082l1.54292,-6.32793l8.47438,-4.17338c2.29645,-1.13076 3.45667,-3.67609 2.65617,-5.91672l-0.002,-0.23415l-0.09961,-0.20464c-0.84904,-1.74991 -2.73162,-2.60426 -4.65026,-2.4143l0,-0.002c-0.63954,0.0634 -1.28375,0.24227 -1.89448,0.54306l-8.51148,4.19109l-5.75179,-2.59139c0.40163,-0.63165 0.48867,-1.45108 0.14258,-2.16441l-0.07813,-0.16332a1.00007,1.00754 0 0 0 -0.58202,-0.51355c-0.2267,-0.2096 -0.39218,-0.50067 -0.67967,-0.60014c-0.53312,-0.18444 -1.13579,-0.16649 -1.67378,0.0984l-2.16986,1.06843l-3.43936,-1.55051c0.35792,-0.55015 0.45017,-1.26411 0.25,-1.93026a1.00007,1.00754 0 0 0 -0.0059,-0.18299l-0.0059,0.002c-0.019,-0.0477 0.01508,-0.0988 -0.0078,-0.14561l0,-0.002l-0.07813,-0.16332a1.00007,1.00754 0 0 0 -0.58202,-0.51356c-0.22674,-0.20964 -0.39214,-0.50065 -0.67967,-0.60013c-0.53319,-0.18446 -1.13551,-0.16673 -1.67378,0.0984l-2.31439,1.13927l-2.68938,-1.21207c-0.80325,-0.42157 -1.28537,-0.74013 -2.01166,-0.78116l0,-0.006l0.00017,-0.00025zm-0.11328,2.01291c0.0575,0.003 0.39445,0.13268 1.23239,0.57061l0.02539,0.0138l3.16593,1.42852l0.002,0l3.05264,1.37539l5.47446,2.46939a1.00007,1.00754 0 0 0 0.0078,0.004l3.05265,1.3754l5.76742,2.60123l-10.28097,5.06275l-16.51907,-12.11481c-0.141,-0.1034 -0.21728,-0.14323 -0.34374,-0.22824l4.29481,-2.11326c0.77856,-0.38365 1.01081,-0.44794 1.06833,-0.44468l-0.00004,-0.0001zm8.15797,0.63357c0.04371,0.0154 0.08018,0.0521 0.10742,0.10822a1.00007,1.00754 0 0 0 0.0078,0.0157l0.07227,0.1456a1.00007,1.00754 0 0 0 0,0.002c0.0541,0.11152 0.02131,0.20459 -0.08789,0.25974l-0.002,0l0,0.002l-0.38866,0.19086l-0.67576,-0.30498l0.81638,-0.4014c0.05573,-0.0275 0.10668,-0.0331 0.15039,-0.0177l0.00005,-0.00004zm8.39235,3.91956c0.0436,0.0154 0.08005,0.0518 0.10742,0.10822a1.00007,1.00754 0 0 0 0.0059,0.0118l0.07422,0.15151c0.0547,0.11274 0.02401,0.20464 -0.08789,0.25973l-0.24609,0.12199l-0.67576,-0.30498l0.67185,-0.33057c0.05604,-0.0276 0.10679,-0.0331 0.15039,-0.0177l-0.00004,0zm18.32956,1.39113c0.14559,-0.009 0.28758,-0.0101 0.42773,0c0.18686,0.0132 0.36776,0.0429 0.541,0.0886l0,0.002c0.69103,0.18213 1.25443,0.61332 1.55073,1.21995l0.0039,0.0101c0.59124,1.21855 -0.0344,2.8669 -1.63667,3.65589l-6.97441,3.43552l0.002,-0.0101l-1.91987,0.94643l-13.28283,6.53851l0,0.01l-7.36308,3.6263c-1.69011,0.8288 -3.37503,1.2295 -4.63463,1.2298c-1.26004,0.0004 -1.92185,-0.3769 -2.11127,-0.7674c-0.16703,-0.3442 -0.07081,-0.9844 0.4785,-1.8141c0.10912,-0.1638 0.22738,-0.3293 0.36913,-0.4998c0.0657,-0.08 0.14233,-0.16 0.21484,-0.24c0.15155,-0.1672 0.31073,-0.3352 0.49022,-0.5037c0.11256,-0.1051 0.23837,-0.2085 0.36132,-0.3129c0.16382,-0.1401 0.33035,-0.2799 0.5117,-0.4171c0.16416,-0.1234 0.34204,-0.2422 0.51952,-0.3621c0.17427,-0.1179 0.34666,-0.2374 0.53319,-0.3503c0.32949,-0.1994 0.66982,-0.3936 1.03317,-0.5725l11.57585,-5.70027l0.0059,0l17.95848,-8.84458c0.45065,-0.22194 0.90889,-0.33938 1.34567,-0.36794l-0.00009,-0.00031zm18.15379,5.11392a1.00007,1.00754 0.03469509000000001 0 0 -0.29686,0.0394a1.00007,1.00754 0.03469509000000001 0 0 -0.68944,1.24158c2.92258,10.98888 0.86955,22.71618 -5.60726,32.03528a1.00007,1.00754 0.03469509000000001 1 0 1.63862,1.155c6.81513,-9.8059 8.97546,-22.1489 5.90023,-33.7117a1.00007,1.00754 0.03469509000000001 0 0 -0.94529,-0.75951l0,-0.00005zm-58.29719,6.91431c0.06026,0.0272 0.13073,0.0574 0.27538,0.1338l0.02539,0.0138l5.54086,2.49494c-0.70366,0.5405 -1.29907,1.1237 -1.79487,1.7257l-5.19712,-3.80939l0.96286,-0.47421c0.11268,-0.0554 0.14364,-0.0665 0.1875,-0.0846l0,-0.00004zm31.09092,0.0865l-1.56245,6.4204l-0.79686,3.2722l-1.42964,5.8617a1.00007,1.00754 0 0 0 -0.0039,0.016l-0.79686,3.2721a1.00007,1.00754 0 0 0 -0.002,0.01l-0.76365,3.1344l-0.0059,0.027c-0.17181,0.9352 -0.2757,1.2823 -0.30858,1.3302c-0.0329,0.047 -0.22727,0.1932 -1.00583,0.5765l-4.2909,2.1132c0.011,-0.1519 0.02575,-0.2367 0.03125,-0.4112l0.66014,-20.56l3.20303,-1.578c0.09004,-0.032 0.13742,-0.061 0.17773,-0.089l6.89434,-3.3961l0.00008,0.0006zm-59.69169,3.5889a1.00007,1.00754 0 0 0 -0.9863,1.0232c0,24.43854 17.42837,45.36284 41.31721,49.60644a1.00007,1.00754 0 1 0 0.34764,-1.9834c-22.9461,-4.0762 -39.6649,-24.1488 -39.6649,-47.6229a1.00007,1.00754 0 0 0 -0.53319,-0.907a1.00007,1.00754 0 0 0 -0.48046,-0.1162l0,-0.00014zm60.44753,3.5851c0.04413,0.015 0.08204,0.051 0.10937,0.1082c0.03348,0.069 0.07827,0.1288 0.125,0.187l-0.04687,-0.024c0.0546,0.1125 0.02401,0.2047 -0.08789,0.2598l-0.76365,0.3758l0.17577,-0.7221l0.33789,-0.1673c0.05593,-0.028 0.10626,-0.033 0.15038,-0.018l0,0.0006zm-22.23375,3.0873l-1.45895,5.9856l-0.0039,0.025c-0.02989,0.1626 -0.05206,0.2387 -0.06836,0.3029c-0.04122,0.024 -0.06665,0.041 -0.17773,0.097l-0.002,0l-0.96091,0.4742l0.20703,-6.5129c0.77978,-0.025 1.6053,-0.1427 2.46477,-0.3718l0.00005,0zm20.14787,5.9934c0.04371,0.015 0.08007,0.05 0.10742,0.1063l0.08008,0.1633c0.0545,0.1123 0.02381,0.2066 -0.08789,0.2617l-0.90818,0.4466l0.17773,-0.7241l0.48046,-0.236c0.05561,-0.027 0.10667,-0.033 0.15038,-0.018l0,0.0002zm33.10064,12.0204a1.00007,1.00754 0 0 0 -0.88084,0.5155c-7.09435,12.3794 -19.26028,20.9604 -33.23344,23.4426a1.00054,1.00801 0 0 0 0.34764,1.9853c14.55407,-2.5854 27.22888,-11.5263 34.61818,-24.4205a1.00007,1.00754 0 0 0 -0.37304,-1.395a1.00007,1.00754 0 0 0 -0.4785,-0.1279zm-70.17773,2.8728a1.00007,1.00754 0.03469509000000001 0 0 -0.29491,0.045a1.00007,1.00754 0.03469509000000001 0 0 -0.40038,1.6862c13.78969,13.893 35.50816,15.8069 51.48294,4.5374a1.00007,1.00754 0.03469509000000001 1 0 -1.14646,-1.6508c-15.1906,10.7162 -35.80964,8.8978 -48.92246,-4.3131a1.00007,1.00754 0.03469509000000001 0 0 -0.71873,-0.3049l0,0.0002z" fill="#fff" fill-rule="nonzero" id="svg_2" stroke-dashoffset="0" stroke-linecap="round" stroke-linejoin="round" stroke-miterlimit="4" stroke-width="2" stroke-opacity="0.2"
/>
   </g>
   <path d="m98.95561,0l2.08877,0l0,100l-2.08877,0l0,-100z" fill="#ffcc00" opacity="0" id="svg_4" stroke-dasharray="null" stroke-linecap="round" stroke-linejoin="round" stroke-width="2"/>
  </g>
 </g>
</svg>